<svg xmlns="http://www.w3.org/2000/svg" xmlns:xlink="http://www.w3.org/1999/xlink" width="800" zoomAndPan="magnify" viewBox="0 0 600 299.999988" height="400" preserveAspectRatio="xMidYMid meet" version="1.0"><defs><g/><clipPath id="55626d182c"><path d="M 149.871094 237.15625 L 450.21875 237.15625 L 450.21875 283.277344 L 149.871094 283.277344 Z M 149.871094 237.15625 " clip-rule="nonzero"/></clipPath><clipPath id="816348b87d"><path d="M 172.929688 237.15625 L 427.070312 237.15625 C 433.183594 237.15625 439.050781 239.585938 443.375 243.910156 C 447.699219 248.234375 450.128906 254.101562 450.128906 260.21875 C 450.128906 266.332031 447.699219 272.199219 443.375 276.523438 C 439.050781 280.847656 433.183594 283.277344 427.070312 283.277344 L 172.929688 283.277344 C 166.816406 283.277344 160.949219 280.847656 156.625 276.523438 C 152.300781 272.199219 149.871094 266.332031 149.871094 260.21875 C 149.871094 254.101562 152.300781 248.234375 156.625 243.910156 C 160.949219 239.585938 166.816406 237.15625 172.929688 237.15625 Z M 172.929688 237.15625 " clip-rule="nonzero"/></clipPath><clipPath id="5006f93d7b"><path d="M 0.871094 0.15625 L 301.21875 0.15625 L 301.21875 46.277344 L 0.871094 46.277344 Z M 0.871094 0.15625 " clip-rule="nonzero"/></clipPath><clipPath id="b265fe6106"><path d="M 23.929688 0.15625 L 278.070312 0.15625 C 284.183594 0.15625 290.050781 2.585938 294.375 6.910156 C 298.699219 11.234375 301.128906 17.101562 301.128906 23.21875 C 301.128906 29.332031 298.699219 35.199219 294.375 39.523438 C 290.050781 43.847656 284.183594 46.277344 278.070312 46.277344 L 23.929688 46.277344 C 17.816406 46.277344 11.949219 43.847656 7.625 39.523438 C 3.300781 35.199219 0.871094 29.332031 0.871094 23.21875 C 0.871094 17.101562 3.300781 11.234375 7.625 6.910156 C 11.949219 2.585938 17.816406 0.15625 23.929688 0.15625 Z M 23.929688 0.15625 " clip-rule="nonzero"/></clipPath><clipPath id="f2b2bd8f3b"><rect x="0" width="302" y="0" height="47"/></clipPath><clipPath id="69e3fea5f5"><rect x="0" width="568" y="0" height="70"/></clipPath><clipPath id="2bd0190647"><rect x="0" width="103" y="0" height="55"/></clipPath><clipPath id="8fb446f8d1"><path d="M 180.882812 15.28125 L 419.09375 15.28125 L 419.09375 154.390625 L 180.882812 154.390625 Z M 180.882812 15.28125 " clip-rule="nonzero"/></clipPath></defs><rect x="-60" width="720" fill="#ffffff" y="-29.999999" height="359.999986" fill-opacity="1"/><rect x="-60" width="720" fill="#ffffff" y="-29.999999" height="359.999986" fill-opacity="1"/><g clip-path="url(#55626d182c)"><g clip-path="url(#816348b87d)"><g transform="matrix(1, 0, 0, 1, 149, 237)"><g clip-path="url(#f2b2bd8f3b)"><g clip-path="url(#5006f93d7b)"><g clip-path="url(#b265fe6106)"><path fill="#37546e" d="M 0.871094 0.15625 L 301.21875 0.15625 L 301.21875 46.277344 L 0.871094 46.277344 Z M 0.871094 0.15625 " fill-opacity="1" fill-rule="nonzero"/></g></g></g></g></g></g><g transform="matrix(1, 0, 0, 1, 16, 162)"><g clip-path="url(#69e3fea5f5)"><g fill="#37546e" fill-opacity="1"><g transform="translate(1.015473, 59.341208)"><g><path d="M 28.53125 -10.671875 C 27.84375 -10.671875 27.289062 -10.992188 26.875 -11.640625 L 16 -29.640625 L 16 -2.015625 C 16 -0.671875 15.328125 0 13.984375 0 L 6.515625 0 C 5.171875 0 4.5 -0.671875 4.5 -2.015625 L 4.5 -46.890625 C 4.5 -48.234375 5.171875 -48.90625 6.515625 -48.90625 L 13.78125 -48.90625 C 14.84375 -48.90625 15.628906 -48.507812 16.140625 -47.71875 L 28.53125 -27.015625 L 40.9375 -47.71875 C 41.351562 -48.507812 42.113281 -48.90625 43.21875 -48.90625 L 50.5 -48.90625 C 51.882812 -48.90625 52.578125 -48.234375 52.578125 -46.890625 L 52.578125 -2.015625 C 52.578125 -0.671875 51.882812 0 50.5 0 L 43.015625 0 C 41.722656 0 41.078125 -0.671875 41.078125 -2.015625 L 41.078125 -29.640625 L 30.125 -11.640625 C 29.707031 -10.992188 29.175781 -10.671875 28.53125 -10.671875 Z M 28.53125 -10.671875 "/></g></g></g><g fill="#37546e" fill-opacity="1"><g transform="translate(58.082053, 59.341208)"><g><path d="M 24.859375 -49.734375 C 31.878906 -49.734375 37.304688 -47.628906 41.140625 -43.421875 C 44.972656 -39.222656 46.890625 -32.898438 46.890625 -24.453125 C 46.890625 -16.003906 44.972656 -9.703125 41.140625 -5.546875 C 37.304688 -1.335938 31.878906 0.765625 24.859375 0.765625 C 17.890625 0.765625 12.488281 -1.335938 8.65625 -5.546875 C 4.820312 -9.703125 2.90625 -16.003906 2.90625 -24.453125 C 2.90625 -32.898438 4.820312 -39.222656 8.65625 -43.421875 C 12.488281 -47.628906 17.890625 -49.734375 24.859375 -49.734375 Z M 24.859375 -9.484375 C 28.234375 -9.484375 30.753906 -10.707031 32.421875 -13.15625 C 34.035156 -15.5625 34.84375 -19.328125 34.84375 -24.453125 C 34.84375 -34.472656 31.515625 -39.484375 24.859375 -39.484375 C 18.265625 -39.484375 14.96875 -34.472656 14.96875 -24.453125 C 14.96875 -14.472656 18.265625 -9.484375 24.859375 -9.484375 Z M 24.859375 -9.484375 "/></g></g></g><g fill="#37546e" fill-opacity="1"><g transform="translate(107.876797, 59.341208)"><g><path d="M 44.609375 -46.890625 L 44.609375 -2.015625 C 44.609375 -0.671875 43.914062 0 42.53125 0 L 34.984375 0 C 33.828125 0 32.992188 -0.4375 32.484375 -1.3125 L 16 -28.953125 L 16 -2.015625 C 16 -0.671875 15.328125 0 13.984375 0 L 6.515625 0 C 5.171875 0 4.5 -0.671875 4.5 -2.015625 L 4.5 -46.890625 C 4.5 -48.234375 5.171875 -48.90625 6.515625 -48.90625 L 14.0625 -48.90625 C 15.257812 -48.90625 16.113281 -48.460938 16.625 -47.578125 L 33.109375 -19.953125 L 33.109375 -46.890625 C 33.109375 -48.234375 33.78125 -48.90625 35.125 -48.90625 L 42.53125 -48.90625 C 43.914062 -48.90625 44.609375 -48.234375 44.609375 -46.890625 Z M 44.609375 -46.890625 "/></g></g></g><g fill="#37546e" fill-opacity="1"><g transform="translate(156.978989, 59.341208)"><g><path d="M 38.578125 -13.71875 C 38.578125 -8.863281 36.847656 -5.257812 33.390625 -2.90625 C 29.878906 -0.507812 25.328125 0.6875 19.734375 0.6875 C 13.128906 0.6875 7.84375 -0.328125 3.875 -2.359375 C 2.769531 -2.910156 2.398438 -3.738281 2.765625 -4.84375 L 4.703125 -10.109375 C 5.117188 -11.398438 5.972656 -11.796875 7.265625 -11.296875 C 10.503906 -9.910156 14.015625 -9.21875 17.796875 -9.21875 C 23.710938 -9.21875 26.671875 -10.765625 26.671875 -13.859375 C 26.671875 -14.828125 26.253906 -15.722656 25.421875 -16.546875 C 24.546875 -17.335938 23.625 -17.960938 22.65625 -18.421875 C 21.632812 -18.835938 20.085938 -19.414062 18.015625 -20.15625 C 16.160156 -20.800781 14.679688 -21.378906 13.578125 -21.890625 C 12.460938 -22.347656 11.171875 -23.039062 9.703125 -23.96875 C 8.222656 -24.84375 7.085938 -25.789062 6.296875 -26.8125 C 5.472656 -27.78125 4.78125 -29.046875 4.21875 -30.609375 C 3.625 -32.179688 3.328125 -33.960938 3.328125 -35.953125 C 3.328125 -40.523438 4.894531 -43.960938 8.03125 -46.265625 C 11.125 -48.523438 15.601562 -49.65625 21.46875 -49.65625 C 27.144531 -49.65625 31.785156 -48.734375 35.390625 -46.890625 C 36.546875 -46.242188 36.941406 -45.414062 36.578125 -44.40625 L 34.625 -39.40625 C 34.164062 -38.164062 33.3125 -37.773438 32.0625 -38.234375 C 29.25 -39.203125 26.113281 -39.6875 22.65625 -39.6875 C 17.707031 -39.6875 15.234375 -38.328125 15.234375 -35.609375 C 15.234375 -35.003906 15.394531 -34.445312 15.71875 -33.9375 C 16 -33.382812 16.320312 -32.945312 16.6875 -32.625 C 17.007812 -32.300781 17.632812 -31.910156 18.5625 -31.453125 C 19.4375 -30.984375 20.148438 -30.632812 20.703125 -30.40625 C 21.210938 -30.175781 22.140625 -29.804688 23.484375 -29.296875 C 25.140625 -28.648438 26.269531 -28.210938 26.875 -27.984375 C 27.476562 -27.753906 28.472656 -27.316406 29.859375 -26.671875 C 31.242188 -26.023438 32.234375 -25.46875 32.828125 -25 C 33.378906 -24.539062 34.117188 -23.921875 35.046875 -23.140625 C 35.972656 -22.304688 36.644531 -21.472656 37.0625 -20.640625 C 37.425781 -19.765625 37.769531 -18.75 38.09375 -17.59375 C 38.414062 -16.394531 38.578125 -15.101562 38.578125 -13.71875 Z M 38.578125 -13.71875 "/></g></g></g><g fill="#37546e" fill-opacity="1"><g transform="translate(197.909015, 59.341208)"><g><path d="M 1.734375 -40.375 L 1.734375 -46.890625 C 1.734375 -48.234375 2.398438 -48.90625 3.734375 -48.90625 L 36.09375 -48.90625 C 37.476562 -48.90625 38.171875 -48.234375 38.171875 -46.890625 L 38.171875 -40.375 C 38.171875 -38.988281 37.476562 -38.296875 36.09375 -38.296875 L 25.90625 -38.296875 L 25.90625 -2.015625 C 25.90625 -0.671875 25.210938 0 23.828125 0 L 16.0625 0 C 14.675781 0 13.984375 -0.671875 13.984375 -2.015625 L 13.984375 -38.296875 L 3.734375 -38.296875 C 2.398438 -38.296875 1.734375 -38.988281 1.734375 -40.375 Z M 1.734375 -40.375 "/></g></g></g><g fill="#37546e" fill-opacity="1"><g transform="translate(237.800225, 59.341208)"><g><path d="M 33.53125 -20.09375 L 16.203125 -20.09375 L 16.203125 -9.96875 L 34.765625 -9.96875 C 36.148438 -9.96875 36.84375 -9.300781 36.84375 -7.96875 L 36.84375 -2.078125 C 36.84375 -0.691406 36.148438 0 34.765625 0 L 6.515625 0 C 5.171875 0 4.5 -0.671875 4.5 -2.015625 L 4.5 -46.890625 C 4.5 -48.234375 5.171875 -48.90625 6.515625 -48.90625 L 34.5 -48.90625 C 35.832031 -48.90625 36.5 -48.234375 36.5 -46.890625 L 36.5 -40.9375 C 36.5 -39.550781 35.832031 -38.859375 34.5 -38.859375 L 16.203125 -38.859375 L 16.203125 -29.640625 L 33.53125 -29.640625 C 34.820312 -29.640625 35.46875 -28.972656 35.46875 -27.640625 L 35.46875 -22.09375 C 35.46875 -20.757812 34.820312 -20.09375 33.53125 -20.09375 Z M 33.53125 -20.09375 "/></g></g></g><g fill="#37546e" fill-opacity="1"><g transform="translate(277.414408, 59.341208)"><g><path d="M 16.28125 -25.140625 L 22.71875 -25.140625 C 25.90625 -25.140625 28.191406 -25.695312 29.578125 -26.8125 C 30.910156 -27.875 31.578125 -29.601562 31.578125 -32 C 31.578125 -34.539062 30.910156 -36.316406 29.578125 -37.328125 C 28.234375 -38.347656 25.96875 -38.859375 22.78125 -38.859375 L 16.28125 -38.859375 Z M 6.515625 -48.90625 L 22.921875 -48.90625 C 29.804688 -48.90625 34.957031 -47.585938 38.375 -44.953125 C 41.789062 -42.273438 43.5 -37.957031 43.5 -32 C 43.5 -24.332031 39.921875 -19.414062 32.765625 -17.25 L 43.15625 -2.5625 C 43.613281 -1.957031 43.726562 -1.378906 43.5 -0.828125 C 43.21875 -0.273438 42.707031 0 41.96875 0 L 33.9375 0 C 32.738281 0 31.789062 -0.53125 31.09375 -1.59375 L 21.546875 -15.578125 L 16.28125 -15.578125 L 16.28125 -2.015625 C 16.28125 -0.671875 15.609375 0 14.265625 0 L 6.515625 0 C 5.171875 0 4.5 -0.671875 4.5 -2.015625 L 4.5 -46.890625 C 4.5 -48.234375 5.171875 -48.90625 6.515625 -48.90625 Z M 6.515625 -48.90625 "/></g></g></g><g fill="#37546e" fill-opacity="1"><g transform="translate(323.746363, 59.341208)"><g/></g></g><g fill="#37546e" fill-opacity="1"><g transform="translate(343.622726, 59.341208)"><g><path d="M 38.578125 -13.71875 C 38.578125 -8.863281 36.847656 -5.257812 33.390625 -2.90625 C 29.878906 -0.507812 25.328125 0.6875 19.734375 0.6875 C 13.128906 0.6875 7.84375 -0.328125 3.875 -2.359375 C 2.769531 -2.910156 2.398438 -3.738281 2.765625 -4.84375 L 4.703125 -10.109375 C 5.117188 -11.398438 5.972656 -11.796875 7.265625 -11.296875 C 10.503906 -9.910156 14.015625 -9.21875 17.796875 -9.21875 C 23.710938 -9.21875 26.671875 -10.765625 26.671875 -13.859375 C 26.671875 -14.828125 26.253906 -15.722656 25.421875 -16.546875 C 24.546875 -17.335938 23.625 -17.960938 22.65625 -18.421875 C 21.632812 -18.835938 20.085938 -19.414062 18.015625 -20.15625 C 16.160156 -20.800781 14.679688 -21.378906 13.578125 -21.890625 C 12.460938 -22.347656 11.171875 -23.039062 9.703125 -23.96875 C 8.222656 -24.84375 7.085938 -25.789062 6.296875 -26.8125 C 5.472656 -27.78125 4.78125 -29.046875 4.21875 -30.609375 C 3.625 -32.179688 3.328125 -33.960938 3.328125 -35.953125 C 3.328125 -40.523438 4.894531 -43.960938 8.03125 -46.265625 C 11.125 -48.523438 15.601562 -49.65625 21.46875 -49.65625 C 27.144531 -49.65625 31.785156 -48.734375 35.390625 -46.890625 C 36.546875 -46.242188 36.941406 -45.414062 36.578125 -44.40625 L 34.625 -39.40625 C 34.164062 -38.164062 33.3125 -37.773438 32.0625 -38.234375 C 29.25 -39.203125 26.113281 -39.6875 22.65625 -39.6875 C 17.707031 -39.6875 15.234375 -38.328125 15.234375 -35.609375 C 15.234375 -35.003906 15.394531 -34.445312 15.71875 -33.9375 C 16 -33.382812 16.320312 -32.945312 16.6875 -32.625 C 17.007812 -32.300781 17.632812 -31.910156 18.5625 -31.453125 C 19.4375 -30.984375 20.148438 -30.632812 20.703125 -30.40625 C 21.210938 -30.175781 22.140625 -29.804688 23.484375 -29.296875 C 25.140625 -28.648438 26.269531 -28.210938 26.875 -27.984375 C 27.476562 -27.753906 28.472656 -27.316406 29.859375 -26.671875 C 31.242188 -26.023438 32.234375 -25.46875 32.828125 -25 C 33.378906 -24.539062 34.117188 -23.921875 35.046875 -23.140625 C 35.972656 -22.304688 36.644531 -21.472656 37.0625 -20.640625 C 37.425781 -19.765625 37.769531 -18.75 38.09375 -17.59375 C 38.414062 -16.394531 38.578125 -15.101562 38.578125 -13.71875 Z M 38.578125 -13.71875 "/></g></g></g><g fill="#37546e" fill-opacity="1"><g transform="translate(384.552752, 59.341208)"><g><path d="M 32.34375 -2.015625 L 32.34375 -19.609375 L 16.421875 -19.609375 L 16.421875 -2.015625 C 16.421875 -0.671875 15.726562 0 14.34375 0 L 6.515625 0 C 5.171875 0 4.5 -0.671875 4.5 -2.015625 L 4.5 -46.890625 C 4.5 -48.234375 5.171875 -48.90625 6.515625 -48.90625 L 14.34375 -48.90625 C 15.726562 -48.90625 16.421875 -48.234375 16.421875 -46.890625 L 16.421875 -30.125 L 32.34375 -30.125 L 32.34375 -46.890625 C 32.34375 -48.234375 33.015625 -48.90625 34.359375 -48.90625 L 42.1875 -48.90625 C 43.519531 -48.90625 44.1875 -48.234375 44.1875 -46.890625 L 44.1875 -2.015625 C 44.1875 -0.671875 43.519531 0 42.1875 0 L 34.359375 0 C 33.015625 0 32.34375 -0.671875 32.34375 -2.015625 Z M 32.34375 -2.015625 "/></g></g></g><g fill="#37546e" fill-opacity="1"><g transform="translate(433.239425, 59.341208)"><g><path d="M 18.140625 -19.25 L 29.71875 -19.25 L 24.109375 -37.203125 L 23.96875 -37.203125 Z M 19.125 -48.90625 L 28.890625 -48.90625 C 30.085938 -48.90625 30.894531 -48.28125 31.3125 -47.03125 L 46.75 -2.359375 C 46.976562 -1.660156 46.957031 -1.101562 46.6875 -0.6875 C 46.363281 -0.226562 45.878906 0 45.234375 0 L 36.984375 0 C 35.785156 0 34.976562 -0.625 34.5625 -1.875 L 32 -9.34375 L 15.9375 -9.34375 L 13.4375 -1.875 C 13.019531 -0.625 12.234375 0 11.078125 0 L 2.765625 0 C 2.117188 0 1.660156 -0.226562 1.390625 -0.6875 C 1.066406 -1.101562 1.019531 -1.660156 1.25 -2.359375 L 16.6875 -47.03125 C 17.101562 -48.28125 17.914062 -48.90625 19.125 -48.90625 Z M 19.125 -48.90625 "/></g></g></g><g fill="#37546e" fill-opacity="1"><g transform="translate(481.233514, 59.341208)"><g><path d="M 16.28125 -23.6875 L 22.375 -23.6875 C 25.507812 -23.6875 27.769531 -24.265625 29.15625 -25.421875 C 30.539062 -26.578125 31.234375 -28.539062 31.234375 -31.3125 C 31.234375 -34.03125 30.539062 -35.96875 29.15625 -37.125 C 27.769531 -38.28125 25.507812 -38.859375 22.375 -38.859375 L 16.28125 -38.859375 Z M 14.265625 0 L 6.515625 0 C 5.171875 0 4.5 -0.671875 4.5 -2.015625 L 4.5 -46.890625 C 4.5 -48.234375 5.171875 -48.90625 6.515625 -48.90625 L 22.515625 -48.90625 C 29.441406 -48.90625 34.613281 -47.539062 38.03125 -44.8125 C 41.445312 -42.039062 43.15625 -37.539062 43.15625 -31.3125 C 43.15625 -25.070312 41.46875 -20.59375 38.09375 -17.875 C 34.675781 -15.101562 29.484375 -13.71875 22.515625 -13.71875 L 16.28125 -13.71875 L 16.28125 -2.015625 C 16.28125 -0.671875 15.609375 0 14.265625 0 Z M 14.265625 0 "/></g></g></g><g fill="#37546e" fill-opacity="1"><g transform="translate(527.357751, 59.341208)"><g><path d="M 33.53125 -20.09375 L 16.203125 -20.09375 L 16.203125 -9.96875 L 34.765625 -9.96875 C 36.148438 -9.96875 36.84375 -9.300781 36.84375 -7.96875 L 36.84375 -2.078125 C 36.84375 -0.691406 36.148438 0 34.765625 0 L 6.515625 0 C 5.171875 0 4.5 -0.671875 4.5 -2.015625 L 4.5 -46.890625 C 4.5 -48.234375 5.171875 -48.90625 6.515625 -48.90625 L 34.5 -48.90625 C 35.832031 -48.90625 36.5 -48.234375 36.5 -46.890625 L 36.5 -40.9375 C 36.5 -39.550781 35.832031 -38.859375 34.5 -38.859375 L 16.203125 -38.859375 L 16.203125 -29.640625 L 33.53125 -29.640625 C 34.820312 -29.640625 35.46875 -28.972656 35.46875 -27.640625 L 35.46875 -22.09375 C 35.46875 -20.757812 34.820312 -20.09375 33.53125 -20.09375 Z M 33.53125 -20.09375 "/></g></g></g></g></g><g transform="matrix(1, 0, 0, 1, 252, 235)"><g clip-path="url(#2bd0190647)"><g fill="#f1f3f2" fill-opacity="1"><g transform="translate(0.31275, 40.162229)"><g><path d="M 3.15625 0 L 3.15625 -26.25 L 9.109375 -26.25 L 9.109375 -5.59375 L 20.59375 -5.59375 L 20.59375 0 Z M 3.15625 0 "/></g></g></g><g fill="#f1f3f2" fill-opacity="1"><g transform="translate(27.872804, 40.162229)"><g><path d="M 15.59375 0.53125 C 12.875 0.53125 10.457031 -0.0507812 8.34375 -1.21875 C 6.226562 -2.382812 4.578125 -3.988281 3.390625 -6.03125 C 2.203125 -8.082031 1.609375 -10.445312 1.609375 -13.125 C 1.609375 -15.800781 2.203125 -18.160156 3.390625 -20.203125 C 4.578125 -22.253906 6.226562 -23.863281 8.34375 -25.03125 C 10.457031 -26.195312 12.875 -26.78125 15.59375 -26.78125 C 18.34375 -26.78125 20.769531 -26.195312 22.875 -25.03125 C 24.976562 -23.863281 26.628906 -22.253906 27.828125 -20.203125 C 29.023438 -18.160156 29.625 -15.800781 29.625 -13.125 C 29.625 -10.445312 29.023438 -8.082031 27.828125 -6.03125 C 26.628906 -3.988281 24.976562 -2.382812 22.875 -1.21875 C 20.769531 -0.0507812 18.34375 0.53125 15.59375 0.53125 Z M 7.6875 -13.125 C 7.6875 -11.550781 8.023438 -10.160156 8.703125 -8.953125 C 9.378906 -7.753906 10.3125 -6.816406 11.5 -6.140625 C 12.6875 -5.472656 14.050781 -5.140625 15.59375 -5.140625 C 17.175781 -5.140625 18.5625 -5.472656 19.75 -6.140625 C 20.9375 -6.816406 21.859375 -7.753906 22.515625 -8.953125 C 23.179688 -10.160156 23.515625 -11.550781 23.515625 -13.125 C 23.515625 -14.695312 23.179688 -16.082031 22.515625 -17.28125 C 21.859375 -18.488281 20.9375 -19.425781 19.75 -20.09375 C 18.5625 -20.769531 17.175781 -21.109375 15.59375 -21.109375 C 14.050781 -21.109375 12.6875 -20.769531 11.5 -20.09375 C 10.3125 -19.425781 9.378906 -18.488281 8.703125 -17.28125 C 8.023438 -16.082031 7.6875 -14.695312 7.6875 -13.125 Z M 7.6875 -13.125 "/></g></g></g><g fill="#f1f3f2" fill-opacity="1"><g transform="translate(65.06945, 40.162229)"><g><path d="M 15.375 0.53125 C 12.695312 0.53125 10.320312 -0.0507812 8.25 -1.21875 C 6.175781 -2.382812 4.550781 -3.988281 3.375 -6.03125 C 2.195312 -8.082031 1.609375 -10.445312 1.609375 -13.125 C 1.609375 -15.800781 2.1875 -18.160156 3.34375 -20.203125 C 4.507812 -22.253906 6.125 -23.863281 8.1875 -25.03125 C 10.25 -26.195312 12.609375 -26.78125 15.265625 -26.78125 C 17.390625 -26.78125 19.347656 -26.40625 21.140625 -25.65625 C 22.941406 -24.90625 24.472656 -23.847656 25.734375 -22.484375 C 27.003906 -21.117188 27.898438 -19.507812 28.421875 -17.65625 L 22.015625 -17.65625 C 21.390625 -18.8125 20.492188 -19.707031 19.328125 -20.34375 C 18.171875 -20.976562 16.851562 -21.296875 15.375 -21.296875 C 13.851562 -21.296875 12.503906 -20.945312 11.328125 -20.25 C 10.148438 -19.550781 9.226562 -18.585938 8.5625 -17.359375 C 7.90625 -16.140625 7.578125 -14.726562 7.578125 -13.125 C 7.578125 -11.550781 7.898438 -10.148438 8.546875 -8.921875 C 9.203125 -7.703125 10.113281 -6.734375 11.28125 -6.015625 C 12.457031 -5.304688 13.847656 -4.953125 15.453125 -4.953125 C 17.378906 -4.953125 18.976562 -5.4375 20.25 -6.40625 C 21.519531 -7.382812 22.34375 -8.675781 22.71875 -10.28125 L 14.21875 -10.28125 L 14.21875 -14.890625 L 29.03125 -14.890625 C 29.175781 -12.640625 28.953125 -10.578125 28.359375 -8.703125 C 27.773438 -6.828125 26.875 -5.191406 25.65625 -3.796875 C 24.445312 -2.410156 22.972656 -1.34375 21.234375 -0.59375 C 19.503906 0.15625 17.550781 0.53125 15.375 0.53125 Z M 15.375 0.53125 "/></g></g></g></g></g><g clip-path="url(#8fb446f8d1)"><path fill="#37546e" d="M 303.839844 44.136719 C 304.886719 43.015625 306.691406 42.800781 308.308594 42.773438 C 310.019531 42.761719 312.257812 43.296875 312.800781 43.871094 C 312.855469 43.929688 312.9375 43.871094 312.914062 43.808594 C 312.582031 42.984375 310.5 41.847656 308.046875 41.859375 C 309.699219 41.507812 311.40625 41.722656 313.03125 42.199219 C 313.523438 42.339844 313.957031 42.492188 314.34375 42.714844 C 316.503906 43.953125 317.4375 47.386719 317.632812 49.878906 C 317.703125 50.71875 317.625 52.042969 317.609375 52.46875 C 317.539062 54.378906 315.316406 65.515625 313.90625 69.75 C 313.199219 71.859375 311.769531 73.382812 309.75 74.292969 C 309.367188 74.472656 308.785156 74.699219 308.382812 74.773438 C 308.273438 74.796875 308.296875 74.925781 308.382812 74.925781 C 309.550781 74.953125 311.863281 74.273438 313.210938 72.738281 C 313.246094 72.808594 313.148438 73.152344 313.023438 73.402344 C 312.816406 73.796875 312.28125 74.703125 311.777344 75.121094 C 309.9375 76.257812 307.101562 76.4375 305.226562 76.039062 C 304.644531 75.914062 303.671875 75.6875 303.148438 75.398438 C 302.824219 75.222656 302.628906 75.019531 302.59375 74.652344 C 302.675781 74.277344 302.707031 74.050781 302.730469 73.886719 C 304.105469 74.699219 305.84375 74.488281 307.3125 73.894531 C 307.402344 73.859375 307.378906 73.726562 307.28125 73.726562 C 305.964844 73.699219 304.003906 73.921875 302.859375 72.652344 C 303.210938 67.925781 302.664062 53.839844 302.683594 52.910156 C 302.761719 48.554688 302.632812 46.046875 303.433594 44.679688 C 303.542969 44.492188 303.667969 44.328125 303.804688 44.175781 C 303.816406 44.164062 303.824219 44.148438 303.839844 44.136719 Z M 286.230469 77.324219 C 285.550781 77.6875 285 77.84375 284.371094 77.859375 C 284.097656 77.703125 283.796875 77.527344 283.425781 77.324219 C 284.765625 77.132812 286.085938 76.859375 287.378906 76.480469 C 286.988281 76.871094 286.695312 77.070312 286.230469 77.324219 Z M 332.117188 64.78125 C 331.105469 64.554688 330.09375 64.335938 329.074219 64.117188 C 329.394531 63.175781 329.679688 62.195312 329.839844 61.308594 C 329.980469 60.441406 330.164062 59.578125 330.132812 58.777344 C 330.492188 57.664062 330.324219 57.175781 330.46875 57.859375 C 330.484375 57.941406 330.5 58.023438 330.515625 58.109375 C 330.980469 60.699219 331.589844 62.621094 332.007812 64.03125 C 332.042969 64.289062 332.082031 64.542969 332.117188 64.78125 Z M 367.085938 75.972656 C 367.753906 76.210938 368.113281 76.609375 368.21875 77.226562 C 368.320312 77.8125 368.195312 78.597656 367.851562 79.558594 C 367.515625 80.507812 367.140625 81.140625 366.710938 81.488281 C 366.429688 81.71875 365.953125 81.984375 365.054688 81.667969 C 353.273438 77.46875 339.972656 73.808594 325.785156 70.832031 C 326.613281 69.214844 327.609375 67.792969 328.386719 65.925781 C 328.476562 65.714844 328.5625 65.488281 328.652344 65.261719 C 342.5 68.230469 355.503906 71.84375 367.085938 75.972656 Z M 397.320312 115.6875 C 393.945312 118.507812 389.671875 120.871094 385.296875 120.90625 C 401.605469 107.507812 411.429688 78.257812 407.488281 59.410156 C 419.46875 68.136719 415.371094 100.367188 397.320312 115.6875 Z M 415.601562 79.828125 C 421.527344 88.550781 414.625 107.261719 404.277344 110.667969 C 411.085938 101.890625 415.105469 90.234375 415.601562 79.828125 Z M 369.410156 77.023438 C 369.230469 75.972656 368.566406 75.214844 367.488281 74.832031 C 366.828125 74.597656 366.148438 74.367188 365.476562 74.132812 C 367.882812 70.832031 371.085938 70.019531 371.636719 74.070312 C 372.253906 78.613281 369 85.597656 365.636719 86.960938 C 363.125 87.972656 362.246094 85.476562 362.574219 82.082031 C 363.265625 82.324219 363.964844 82.558594 364.648438 82.804688 C 365.742188 83.191406 366.691406 83.066406 367.472656 82.425781 C 368.082031 81.933594 368.578125 81.125 368.992188 79.964844 C 369.410156 78.789062 369.546875 77.828125 369.410156 77.023438 Z M 355.449219 70.882812 C 357.75 65.859375 360.667969 61.070312 364.351562 56.902344 C 367.273438 53.617188 371.640625 49.730469 376.019531 49.195312 C 378.710938 48.839844 380.800781 49.738281 382.378906 51.394531 C 376.660156 48.222656 369.851562 53.054688 365.484375 57.921875 C 362.210938 61.566406 359.277344 66.210938 356.941406 71.335938 C 356.449219 71.183594 355.949219 71.035156 355.449219 70.882812 Z M 372.484375 77.082031 C 372.90625 74.171875 372.40625 70.40625 369.5 70.429688 C 371.414062 69.25 372.78125 69.660156 373.542969 70.757812 C 374.644531 72.363281 374.617188 74.75 374.402344 76.679688 C 373.292969 85.933594 364.871094 94.382812 362.929688 87.363281 C 366.109375 90.402344 371.53125 83.679688 372.484375 77.082031 Z M 363.964844 109.277344 C 360.335938 110.265625 357.246094 109.089844 355.207031 106.101562 C 350.65625 99.492188 352.417969 87.398438 354.816406 79.539062 C 357.160156 80.269531 359.460938 81.015625 361.710938 81.785156 C 361.582031 82.898438 361.652344 83.410156 361.625 84.328125 C 361.675781 85.785156 361.523438 86.320312 361.90625 87.796875 C 362.917969 91.648438 366.527344 92.355469 370.035156 88.769531 C 373.226562 85.402344 375.042969 80.71875 375.476562 76.8125 C 375.796875 73.691406 375.507812 69.886719 372.542969 68.832031 C 369.855469 68.203125 367.886719 70.382812 366.089844 72.210938 C 366.160156 72.277344 366.042969 72.09375 364.742188 73.878906 C 362.488281 73.101562 360.175781 72.347656 357.820312 71.613281 C 360.320312 66.148438 363.457031 61.496094 366.46875 58.195312 C 371.796875 52.410156 379.472656 48.144531 384.304688 54.265625 C 391.335938 68.890625 379.160156 101.757812 363.964844 109.277344 Z M 353.9375 79.265625 C 351.625 86.828125 350.125 97.125 353.195312 104.316406 C 354.757812 107.96875 357.324219 110.085938 360.449219 110.476562 C 356.34375 111.171875 353.03125 109.09375 351.175781 104.535156 C 348.082031 96.945312 349.871094 86.605469 352.378906 78.796875 C 352.898438 78.953125 353.425781 79.105469 353.9375 79.265625 Z M 398.269531 46.039062 C 402.320312 48.335938 404.675781 52.898438 405.878906 57.375 C 410.632812 75.085938 401.320312 102.46875 387.40625 116.40625 C 383.300781 120.558594 377.464844 124.726562 371.617188 125.175781 C 369.0625 125.300781 369.589844 125.222656 360.902344 123.519531 C 364.445312 122.617188 367.738281 120.578125 370.527344 118.261719 C 392.5625 99.9375 402.617188 56.652344 390.984375 41.933594 C 392.652344 42.875 394.988281 44.191406 398.269531 46.039062 Z M 384.289062 38.628906 C 393.503906 41.011719 395.246094 54.488281 394.480469 64.007812 C 393.082031 82.367188 383.277344 105.265625 369.351562 116.816406 C 358.808594 125.558594 348.753906 123.667969 345.550781 110.027344 C 343.203125 99.929688 345.292969 87.542969 348.449219 77.648438 C 349.371094 77.910156 350.285156 78.175781 351.195312 78.445312 C 348.894531 86.179688 347.660156 95.242188 349.539062 102.296875 C 351.027344 107.960938 354.507812 112.039062 360.097656 111.351562 C 375.246094 109.492188 391.339844 75.960938 386.640625 57.136719 C 382.398438 40.234375 364.46875 46.902344 354.105469 70.480469 C 353.207031 70.214844 352.300781 69.949219 351.386719 69.6875 C 355.117188 60.8125 358.921875 55.128906 363.453125 49.609375 C 368.546875 43.644531 376.691406 36.722656 384.289062 38.628906 Z M 316.503906 74.695312 C 315.980469 74.488281 315.277344 74.378906 314.808594 74.054688 C 314.203125 73.640625 313.8125 73.347656 313.820312 73.332031 C 315.828125 68.535156 318.539062 55.296875 318.554688 52.074219 C 319.699219 51.152344 320.550781 51.109375 320.578125 50.96875 C 320.585938 50.925781 320.554688 50.882812 320.511719 50.875 C 319.839844 50.757812 319.144531 50.878906 318.535156 51.195312 C 318.519531 50.84375 318.496094 50.488281 318.464844 50.144531 C 320.027344 49.390625 322.480469 49.222656 324.578125 49.992188 C 325.667969 50.394531 326.609375 51.046875 327.429688 51.898438 C 328.007812 52.714844 328.671875 53.707031 329.167969 54.578125 C 329.503906 55.433594 329.742188 56.40625 329.839844 57.480469 C 329.621094 57 329.296875 56.605469 328.792969 56.265625 C 328.71875 56.210938 328.628906 56.3125 328.6875 56.382812 C 329.960938 57.898438 329.328125 59.214844 328.796875 61.339844 C 328.347656 62.972656 327.542969 65.054688 326.890625 66.332031 C 326.421875 67.285156 325.246094 68.914062 324.375 70.636719 C 322.945312 73.378906 322.996094 76.652344 316.042969 75.808594 C 314.980469 75.675781 313.773438 75.523438 312.878906 74.925781 C 313.089844 74.636719 313.28125 74.300781 313.445312 73.980469 C 314.257812 74.660156 315.476562 75.105469 316.492188 74.867188 C 316.578125 74.847656 316.589844 74.726562 316.503906 74.695312 Z M 300.636719 75.964844 C 299.097656 76.855469 294.929688 77.765625 292.996094 77.589844 C 292.226562 77.519531 290.84375 77.03125 289.902344 76.308594 C 292.527344 76.816406 296.589844 76.511719 298.320312 74.980469 C 298.363281 74.941406 298.339844 74.847656 298.273438 74.863281 C 296.523438 75.277344 294.652344 75.832031 290.453125 75.222656 C 292.839844 73.902344 294.972656 71.945312 296.25 69.5 C 299.066406 64.132812 297.113281 58.207031 293.742188 56.246094 C 292.871094 55.734375 291.878906 55.515625 291.144531 55.546875 C 289.597656 55.578125 288.523438 55.675781 286.800781 56.140625 C 286.734375 53.777344 286.832031 48.988281 286.90625 45.230469 C 287.058594 44.714844 287.394531 44.0625 288.003906 43.371094 C 289.339844 41.882812 291.304688 41.289062 293.285156 41.132812 C 293.507812 41.109375 294.300781 41.113281 294.488281 41.132812 C 296.804688 41.261719 299.390625 42.296875 301.339844 43.53125 C 301.773438 43.8125 302.195312 44.109375 302.617188 44.417969 C 302.257812 44.953125 302.015625 45.5 301.847656 46.574219 C 301.53125 45.933594 301.121094 45.402344 300.648438 44.988281 C 300.296875 44.675781 299.765625 44.3125 299.292969 44.3125 C 299.214844 44.316406 299.207031 44.429688 299.285156 44.441406 C 300.0625 44.546875 301.558594 46.148438 301.703125 48.210938 C 301.636719 49.714844 301.785156 51.296875 301.824219 52.824219 C 301.859375 53.878906 301.898438 53.714844 301.90625 54.269531 C 302.097656 71.507812 301.996094 75.066406 300.636719 75.964844 Z M 270.816406 59.660156 C 271.132812 57.605469 271.386719 54.949219 271.074219 52.878906 C 270.765625 51.144531 270.542969 49.171875 270.640625 47.417969 C 270.679688 46.765625 270.792969 45.804688 271.015625 45.191406 C 271.175781 44.726562 271.136719 44.867188 271.28125 44.539062 C 272.441406 42.40625 278.636719 40.28125 281.390625 41.1875 C 281.859375 41.328125 281.40625 41.160156 282.355469 41.5 C 283.542969 42.03125 284.65625 42.667969 286.160156 44.054688 C 286.03125 44.300781 285.765625 44.882812 285.757812 45.136719 C 285.746094 45.503906 285.738281 45.875 285.726562 46.246094 C 285.160156 45.273438 283.957031 43.921875 282.855469 43.765625 C 282.78125 43.757812 282.75 43.851562 282.808594 43.890625 C 283.882812 44.582031 284.9375 46.457031 285.382812 47.746094 C 285.429688 47.867188 285.460938 47.988281 285.507812 48.109375 C 285.746094 48.765625 285.660156 47.84375 285.640625 51.039062 C 285.632812 52.574219 285.621094 54.910156 285.714844 56.453125 C 281.363281 57.761719 281.109375 57.625 277.796875 58.125 C 274.34375 58.664062 273.0625 59.386719 270.816406 59.660156 Z M 187.761719 46.929688 C 185.289062 57.050781 185.847656 69.367188 189.898438 79.710938 C 180.9375 73.515625 179.605469 53.621094 187.761719 46.929688 Z M 201.320312 29.640625 C 192.207031 46.601562 193.355469 77.4375 205.207031 94.902344 C 201.019531 93.628906 197.589844 90.15625 195.152344 86.492188 C 182.171875 66.695312 187.359375 34.617188 201.320312 29.640625 Z M 249.386719 55.359375 C 246.121094 29.8125 230.808594 18.34375 221.953125 33.359375 C 212.121094 50.082031 218.074219 86.796875 232.082031 92.867188 C 237.246094 95.109375 241.738281 92.179688 244.765625 87.167969 C 248.566406 80.933594 249.945312 71.894531 249.929688 63.820312 C 250.875 63.820312 251.828125 63.824219 252.785156 63.835938 C 253.011719 74.21875 251.515625 86.691406 246.40625 95.710938 C 239.476562 107.886719 229.296875 106.855469 221.65625 95.488281 C 211.566406 80.46875 208.640625 55.734375 212.496094 37.730469 C 214.453125 28.382812 219.933594 15.949219 229.445312 16.269531 C 237.277344 16.59375 243.128906 25.535156 246.328125 32.695312 C 249.113281 39.273438 251.152344 45.800781 252.21875 55.367188 C 251.269531 55.359375 250.328125 55.359375 249.386719 55.359375 Z M 242.5625 88.851562 C 239.492188 92.699219 235.726562 93.757812 231.988281 91.925781 C 235.097656 92.4375 238.160156 91.132812 240.6875 88.070312 C 245.667969 82.042969 247.140625 71.742188 247.0625 63.832031 C 247.601562 63.824219 248.148438 63.828125 248.691406 63.824219 C 248.890625 72.023438 247.679688 82.445312 242.5625 88.851562 Z M 225.007812 31.265625 C 231.375 26.761719 237.53125 33.023438 241.003906 40.078125 C 242.960938 44.09375 244.648438 49.449219 245.503906 55.394531 C 243.035156 55.433594 240.605469 55.503906 238.222656 55.609375 C 237.480469 53.527344 237.316406 53.675781 237.40625 53.628906 C 236.199219 51.371094 234.925781 48.71875 232.171875 48.566406 C 229.027344 48.734375 227.675781 52.304688 227.097656 55.390625 C 226.410156 59.253906 226.828125 64.261719 228.9375 68.394531 C 231.285156 72.828125 234.945312 73.167969 237.007812 69.757812 C 237.792969 68.453125 237.796875 67.898438 238.257812 66.515625 C 238.496094 65.628906 238.703125 65.15625 238.894531 64.050781 C 241.269531 63.949219 243.6875 63.882812 246.144531 63.847656 C 246.21875 72.066406 244.492188 84.160156 238.257812 89.214844 C 235.453125 91.503906 232.15625 91.757812 228.957031 89.785156 C 216.507812 78.269531 214.125 43.304688 225.007812 31.265625 Z M 246.425781 55.378906 C 245.632812 49.800781 244.132812 44.515625 242.027344 40.097656 C 239.214844 34.191406 234.054688 27.628906 227.667969 29.054688 C 229.648438 27.914062 231.910156 27.644531 234.386719 28.746094 C 238.4375 30.496094 241.53125 35.460938 243.402344 39.4375 C 245.757812 44.480469 247.199219 49.894531 247.984375 55.367188 C 247.464844 55.371094 246.941406 55.371094 246.425781 55.378906 Z M 233.667969 67.902344 C 230.824219 65.648438 229.679688 58.027344 231.554688 53.84375 C 233.230469 50.113281 236.074219 51.800781 237.445312 55.644531 C 236.738281 55.679688 236.019531 55.707031 235.320312 55.746094 C 234.179688 55.8125 233.328125 56.347656 232.859375 57.308594 C 232.5 58.039062 232.359375 59 232.425781 60.246094 C 232.496094 61.476562 232.746094 62.390625 233.1875 63.035156 C 233.757812 63.871094 234.632812 64.261719 235.789062 64.199219 C 236.515625 64.15625 237.253906 64.125 237.984375 64.09375 C 237.339844 67.441406 235.789062 69.589844 233.667969 67.902344 Z M 228.167969 55.566406 C 228.503906 53.652344 229.15625 51.355469 230.667969 50.128906 C 231.707031 49.289062 233.132812 49.285156 234.636719 50.957031 C 231.855469 50.109375 230.3125 53.582031 229.890625 56.492188 C 228.941406 63.09375 232.238281 71.074219 236.148438 69.054688 C 232.300781 75.242188 226.613281 64.753906 228.167969 55.566406 Z M 269.699219 59.757812 C 269.003906 59.789062 268.449219 59.726562 267.664062 60.050781 C 266.828125 60.425781 266.183594 60.800781 265.113281 61.820312 C 264.761719 62.179688 264.449219 62.554688 264.164062 62.9375 C 254.175781 62.488281 244.617188 62.496094 235.71875 62.988281 C 234.773438 63.046875 234.386719 62.652344 234.183594 62.355469 C 233.871094 61.894531 233.6875 61.183594 233.632812 60.179688 C 233.578125 59.15625 233.679688 58.371094 233.941406 57.839844 C 234.21875 57.273438 234.679688 56.992188 235.386719 56.953125 C 246.113281 56.359375 257.777344 56.449219 269.972656 57.191406 C 269.90625 58.074219 269.804688 58.980469 269.699219 59.757812 Z M 222.089844 17.546875 C 206.769531 28.375 204.167969 72.738281 220.121094 96.542969 C 222.140625 99.550781 224.71875 102.441406 227.863281 104.3125 C 219.050781 103.484375 219.53125 103.710938 217.117188 102.867188 C 211.640625 100.78125 207.21875 95.132812 204.457031 89.988281 C 195.050781 72.683594 193.867188 43.785156 203.433594 28.144531 C 205.855469 24.191406 209.410156 20.480469 213.941406 19.421875 C 217.609375 18.578125 220.222656 17.976562 222.089844 17.546875 Z M 219.761719 105.550781 C 222.007812 105.773438 233.011719 106.210938 233.730469 106.265625 C 238.953125 106.675781 244.070312 103.515625 247.964844 96.589844 C 251.886719 89.597656 253.648438 79.089844 254.179688 70.953125 C 254.261719 69.058594 254.34375 66.050781 254.273438 63.847656 C 257.273438 63.890625 260.320312 63.980469 263.410156 64.113281 C 262.230469 66.292969 262.074219 68.738281 263.363281 71.171875 C 263.648438 71.660156 263.882812 72.15625 264.082031 72.691406 C 265.339844 76.125 265.320312 76.488281 265.914062 83.519531 C 266.019531 84.707031 266.140625 86.3125 266.375 87.207031 C 266.929688 89.328125 268.566406 92.21875 270.613281 93.84375 C 270.960938 94.117188 271.160156 94.484375 271.238281 94.578125 C 272.980469 96.683594 274.914062 98.539062 277.09375 100.1875 C 279.5 102.007812 281.945312 103.789062 284.5 105.375 C 285.019531 105.695312 286.101562 106.023438 286.445312 106.539062 C 288.421875 109.53125 287.636719 114.296875 287.703125 118.058594 C 287.589844 124.933594 284.484375 139.371094 284.332031 147.125 C 284.277344 149.875 284.171875 152.296875 284.164062 154.390625 L 284.953125 154.390625 C 285.253906 151.9375 285.375 149.203125 285.4375 147.152344 C 285.636719 139.488281 288.847656 125.105469 289.007812 118.035156 C 288.964844 114.410156 289.886719 111.027344 288.554688 107.71875 C 289.417969 108.179688 290.652344 108.816406 291.578125 109.171875 C 294.175781 110.175781 299.035156 111.03125 301.480469 111.109375 C 303.042969 111.167969 305.007812 111.046875 306.492188 110.566406 C 306.574219 110.539062 306.558594 110.414062 306.46875 110.414062 C 302.347656 110.375 295.3125 109.425781 291.609375 107.761719 C 295.234375 108.8125 298.089844 108.554688 301.863281 107.835938 C 303.9375 107.441406 305.847656 106.976562 307.628906 105.945312 C 308.871094 105.582031 311.183594 104.246094 312.175781 103.460938 C 313.164062 102.695312 314.042969 101.707031 314.496094 100.527344 C 314.578125 100.320312 314.722656 99.851562 314.761719 99.617188 C 314.898438 98.96875 314.878906 98.371094 314.742188 97.746094 C 314.601562 97.234375 314.53125 97.132812 314.40625 96.886719 C 314.359375 96.789062 314.199219 96.839844 314.230469 96.960938 C 314.621094 98.566406 313.898438 100.253906 312.71875 101.433594 C 312.152344 101.996094 311.53125 102.4375 310.867188 102.839844 C 311.535156 101.796875 311.976562 100.667969 312.183594 99.582031 C 312.320312 98.875 312.347656 98.332031 312.378906 97.597656 C 312.441406 95.457031 312.160156 93.941406 311.023438 91.910156 C 310.96875 91.8125 310.820312 91.875 310.847656 91.984375 C 311.191406 93.289062 311.4375 94.328125 311.4375 95.667969 C 311.421875 96.835938 311.160156 98.644531 310.992188 99.316406 C 310.40625 101.617188 308.90625 103.6875 306.84375 104.851562 C 304.898438 105.972656 301.988281 106.527344 299.757812 106.875 C 297.691406 107.191406 295.773438 107.34375 293.742188 107.003906 C 296.574219 106.476562 299.617188 104.890625 300.859375 102.25 C 300.894531 102.175781 300.800781 102.097656 300.730469 102.15625 C 299.722656 103.027344 299.546875 103.140625 298.980469 103.535156 C 295.773438 105.742188 292.261719 106.285156 289.402344 105.511719 C 286.308594 104.675781 283.769531 103.457031 281.28125 101.503906 C 278.804688 99.566406 275.914062 97.40625 273.664062 95.183594 C 277.210938 95.734375 281.730469 94.261719 282.964844 92.066406 C 282.980469 92.035156 282.976562 92 282.953125 91.972656 C 282.800781 91.820312 282.671875 92.457031 280.847656 93.199219 C 278.035156 94.347656 274.523438 94.449219 272.890625 93.910156 C 270.25 93.03125 267.941406 89.253906 267.300781 86.960938 C 266.949219 85.707031 266.667969 81.925781 266.183594 78.605469 C 265.75 75.714844 265.542969 75.160156 264.621094 72.96875 C 265.792969 74.34375 267.5 75.625 269.722656 76.617188 C 269.792969 76.648438 269.875 76.554688 269.796875 76.480469 C 266.863281 73.871094 265.554688 73.125 264.230469 70.71875 C 262.769531 67.753906 263.539062 64.871094 265.800781 62.515625 C 266.78125 61.578125 267.34375 61.261719 268.023438 60.953125 C 268.15625 60.894531 268.578125 60.757812 268.71875 60.761719 C 268.914062 60.742188 268.851562 60.746094 269.015625 60.742188 C 271.472656 60.734375 272.707031 60.3125 274.609375 59.828125 C 276.742188 59.273438 278.117188 59.109375 280.007812 58.863281 C 284.929688 58.25 286.816406 56.734375 291.144531 56.671875 C 296.550781 56.484375 300.644531 69.136719 288.699219 74.921875 C 287.28125 75.515625 285.996094 75.882812 284.488281 76.207031 C 282.9375 76.53125 280.71875 76.851562 279.058594 76.894531 C 274.59375 77.023438 273.65625 75.230469 271.871094 73.769531 C 271.796875 73.707031 271.699219 73.816406 271.769531 73.882812 C 273.023438 75.089844 274.0625 77.09375 277.644531 77.527344 C 278.425781 77.59375 279.011719 77.648438 280.300781 77.605469 C 279.878906 77.996094 279.25 78.773438 277.824219 79.390625 C 276.988281 79.765625 276.011719 80.011719 275.179688 80.222656 C 275.109375 80.242188 275.117188 80.347656 275.191406 80.355469 C 276.449219 80.488281 277.886719 80.300781 279.015625 79.753906 C 279.960938 79.300781 280.816406 78.535156 281.261719 77.867188 C 281.339844 77.753906 281.410156 77.640625 281.480469 77.527344 C 281.539062 77.527344 281.550781 77.527344 281.609375 77.53125 C 281.785156 77.84375 282.183594 78.761719 282.257812 79.289062 C 282.410156 80.070312 282.238281 81.347656 282 81.941406 C 281.570312 83.164062 281.011719 83.949219 280.125 84.777344 C 280.046875 84.851562 280.125 84.980469 280.222656 84.941406 C 281.898438 84.324219 283.351562 82.625 283.601562 80.261719 C 284.355469 83.324219 283.21875 86.316406 281.644531 87.53125 C 281.558594 87.601562 281.636719 87.738281 281.742188 87.695312 C 283.835938 86.824219 285.671875 83.433594 284.851562 79.820312 C 285.589844 80.371094 286.289062 80.902344 286.78125 81.679688 C 286.960938 81.945312 287.183594 82.390625 287.253906 82.5625 C 287.816406 84.027344 287.90625 85.445312 287.359375 87.019531 C 287.320312 87.125 287.457031 87.199219 287.523438 87.113281 C 288.785156 85.472656 288.917969 83.023438 287.839844 81.050781 C 287.425781 80.242188 286.773438 79.621094 286.085938 79.066406 C 286.03125 79.027344 287.511719 78.265625 287.675781 78.21875 C 288.257812 78.050781 288.867188 78.027344 289.46875 78.074219 C 291.980469 78.273438 296.503906 79.234375 297.207031 82.171875 C 297.234375 82.285156 297.402344 82.261719 297.398438 82.140625 C 297.320312 80.667969 296.167969 79.550781 294.882812 78.800781 C 295.007812 78.792969 295.140625 78.785156 295.273438 78.773438 C 295.382812 78.765625 295.488281 78.769531 295.597656 78.769531 C 296.660156 78.761719 295.859375 78.742188 296.894531 78.789062 C 300.558594 79.058594 301.800781 80.714844 303.46875 82.480469 C 303.546875 82.566406 303.683594 82.460938 303.625 82.363281 C 302.617188 80.660156 301.941406 79.714844 300.230469 78.675781 C 299.703125 78.378906 299.160156 78.164062 298.601562 78.007812 C 299.015625 77.863281 299.339844 77.746094 299.558594 77.691406 C 299.890625 77.582031 299.84375 77.5625 300.136719 77.632812 C 301.402344 77.925781 302.214844 78.160156 303.246094 78.902344 C 304.203125 79.589844 305.097656 80.632812 306.117188 81.84375 C 307.96875 84.074219 309.464844 86.15625 310.058594 89.140625 C 310.082031 89.253906 310.25 89.238281 310.25 89.121094 C 310.234375 87.671875 309.859375 86.214844 309.261719 84.882812 C 308.976562 84.242188 308.902344 84.414062 310.015625 85.367188 C 311.257812 86.449219 312.761719 87.289062 314.390625 87.429688 C 314.503906 87.4375 314.539062 87.269531 314.414062 87.242188 C 310.640625 86.300781 308.691406 82.113281 305.5 78.839844 C 308.386719 80.109375 312.414062 81.96875 316.039062 81.476562 C 316.152344 81.460938 316.148438 81.296875 316.035156 81.285156 C 312.25 80.949219 308.386719 78.609375 305.300781 77.308594 C 304.488281 76.957031 305.496094 77.476562 307.476562 77.339844 C 308.472656 77.273438 309.589844 77.054688 310.566406 76.660156 C 310.882812 76.660156 311.21875 76.675781 311.542969 76.730469 C 312.769531 76.921875 313.847656 77.574219 314.925781 78.175781 C 318.039062 79.859375 320.066406 79.730469 323.601562 80.050781 C 323.585938 80.046875 323.695312 80.0625 323.71875 79.96875 C 323.730469 79.910156 323.695312 79.851562 323.636719 79.835938 C 320.949219 79.175781 320.035156 79.183594 318.019531 78.417969 C 317.144531 78.082031 316.359375 77.640625 315.59375 77.207031 C 316.4375 77.324219 317.304688 77.402344 317.925781 77.414062 C 320.226562 77.453125 322.507812 76.804688 323.839844 74.941406 C 323.882812 74.878906 323.921875 74.816406 323.960938 74.753906 C 325.855469 75.007812 327.761719 74.8125 329.265625 74.175781 C 329.308594 74.160156 329.335938 74.117188 329.332031 74.070312 C 329.320312 73.847656 329.039062 74.066406 327.203125 74.011719 C 326.300781 73.980469 325.421875 73.886719 324.539062 73.703125 C 324.769531 73.203125 324.96875 72.671875 325.195312 72.105469 C 325.214844 72.054688 325.238281 72.007812 325.261719 71.957031 C 327.8125 72.492188 330.335938 73.050781 332.824219 73.625 C 332.683594 75.738281 332.4375 77.738281 332.304688 78.851562 C 331.285156 87.046875 330.964844 86.402344 329.59375 94.316406 C 329.507812 94.824219 329.5 94.871094 329.460938 95.0625 C 329.097656 96.953125 328.238281 99.28125 326.980469 101.179688 C 325.253906 102.835938 322.9375 104.078125 321.152344 104.386719 C 320.277344 104.574219 318.875 104.410156 318.289062 104.347656 C 320.511719 103.476562 322.605469 102.007812 323.664062 99.828125 C 323.714844 99.730469 323.582031 99.636719 323.507812 99.726562 C 321.929688 101.492188 319.652344 102.753906 317.355469 103.457031 C 315.085938 104.171875 313.984375 104.15625 312.613281 104.785156 C 312.042969 105.046875 311.476562 105.148438 311.09375 105.683594 C 311.046875 105.75 311.085938 105.855469 311.191406 105.847656 C 311.570312 105.824219 313.121094 105.625 313.960938 105.464844 C 314.820312 105.300781 315.707031 105.285156 316.574219 105.425781 C 319.050781 105.835938 321.660156 106.410156 324.804688 104.324219 C 325.476562 103.886719 325.679688 103.613281 325.445312 103.90625 C 323.386719 106.488281 320.234375 108.398438 316.605469 109.03125 C 316.492188 109.050781 316.503906 109.222656 316.621094 109.222656 C 319.394531 109.234375 322.308594 108.226562 324.734375 106.28125 C 323.164062 110.839844 321.320312 117.734375 321.953125 122.519531 C 322.246094 124.839844 324.320312 133.992188 325.554688 141.679688 C 326.015625 144.519531 326.820312 151.109375 326.761719 154.390625 L 327.25 154.390625 C 328.386719 150.304688 326.308594 138.804688 323.746094 125.515625 C 323.253906 122.917969 323.941406 116.15625 325.019531 110.351562 C 325.429688 108.109375 326.308594 105.199219 327.203125 103.183594 C 328.832031 100.78125 330.441406 97.035156 330.902344 94.550781 C 331.535156 91.039062 332.671875 85.726562 333.019531 82.089844 C 333.214844 79.660156 333.539062 76.625 333.714844 73.832031 C 338.265625 74.898438 342.707031 76.035156 347.015625 77.242188 C 346.328125 79.332031 345.554688 82.242188 345.097656 84.082031 C 343.304688 92.035156 342.023438 102.613281 343.808594 110.429688 C 345.585938 118.171875 349.597656 122.652344 354.722656 123.738281 C 355.425781 123.886719 366.105469 126.578125 368.320312 127.003906 C 373.828125 127.785156 378.910156 125.601562 383.40625 122.359375 C 390.324219 123.640625 397.808594 118.195312 402.625 112.675781 C 413.339844 111.554688 422.195312 93.832031 418.058594 82.03125 C 417.484375 80.464844 416.710938 79.003906 415.652344 77.820312 C 415.679688 68.914062 412.96875 61.3125 407.136719 57.90625 C 405.804688 52.6875 403.210938 47.621094 398.4375 45.085938 C 397.699219 44.671875 395.621094 43.5 393.453125 42.277344 C 391.46875 41.160156 385.582031 37.890625 384.164062 37.605469 C 382.074219 37.1875 379.882812 37.363281 377.722656 37.988281 C 369.597656 40.285156 361.976562 48.945312 357.285156 55.960938 C 356.839844 56.632812 355.902344 58.160156 355.46875 58.863281 C 354.441406 60.597656 352.8125 63.605469 351.953125 65.308594 C 351.703125 65.820312 350.242188 68.914062 350.0625 69.308594 C 344.582031 67.761719 338.898438 66.316406 333.046875 64.992188 C 333.035156 64.9375 333.023438 64.878906 333.011719 64.824219 C 332.941406 64.15625 332.804688 63.34375 332.675781 62.855469 C 331.039062 56.820312 331.570312 58.089844 331.160156 56.894531 C 331.128906 56.800781 331.097656 56.707031 331.0625 56.613281 C 330.8125 55.929688 330.5 55.277344 330.148438 54.65625 C 329.171875 51.3125 326.320312 48.683594 322.523438 48.359375 C 321.136719 48.238281 319.605469 48.417969 318.332031 48.988281 C 317.890625 45.871094 316.746094 42.722656 313.734375 41.769531 C 311.484375 41.152344 308.476562 40.746094 306.359375 41.570312 C 305.097656 42.0625 304.3125 42.226562 303.136719 43.671875 C 303.058594 43.765625 302.921875 43.773438 302.839844 43.6875 C 302.28125 43.09375 299.902344 41.664062 299.632812 41.539062 C 298.503906 41.011719 297.316406 40.570312 296.082031 40.347656 C 292.804688 39.761719 288.328125 40.378906 286.453125 43.480469 C 286.433594 43.515625 286.425781 43.539062 286.417969 43.554688 C 286.410156 43.582031 286.402344 43.582031 286.375 43.535156 C 286.308594 43.4375 286.125 43.148438 285.496094 42.515625 C 284.5625 41.574219 282.988281 40.648438 280.785156 40.171875 C 278.96875 39.863281 275.792969 40.296875 272.976562 41.753906 C 270.761719 42.9375 270.304688 43.855469 269.949219 44.832031 C 269.175781 46.871094 269.464844 50.539062 269.875 52.824219 C 270.015625 53.613281 270.109375 54.296875 270.050781 55.902344 C 270.050781 55.929688 270.046875 55.960938 270.046875 55.988281 C 264.4375 55.644531 258.941406 55.441406 253.597656 55.378906 C 253.535156 54.949219 253.011719 51.570312 252.917969 51.007812 C 252.574219 49.132812 251.859375 45.785156 251.367188 43.832031 C 251.148438 43.035156 250.679688 41.304688 250.445312 40.535156 C 247.933594 32.476562 243.074219 22.011719 235.925781 17.511719 C 233.304688 15.84375 230.386719 14.96875 227.394531 15.382812 C 226.75 15.472656 215.628906 18.101562 214.054688 18.460938 C 208.753906 19.542969 204.832031 23.667969 202.078125 28.296875 C 195.519531 29.914062 190.773438 36.441406 188.277344 44.988281 C 186.925781 45.824219 185.773438 47.007812 184.78125 48.347656 C 177.476562 58.492188 180.953125 78 190.914062 82.109375 C 193.972656 88.761719 199.609375 96.105469 206.605469 96.828125 C 210.003906 101.214844 214.261719 104.746094 219.761719 105.550781 " fill-opacity="1" fill-rule="nonzero"/></g><path fill="#37546e" d="M 289.761719 58.507812 C 290.527344 58.363281 291.179688 58.394531 291.789062 58.976562 C 292.273438 59.433594 292.675781 60.1875 292.9375 60.804688 C 293.128906 61.289062 293.179688 61.378906 293.332031 62.054688 C 293.800781 64.46875 293.050781 67.433594 291.898438 68.835938 C 291.324219 69.539062 290.949219 69.558594 290.070312 69.613281 C 290.554688 69.261719 290.886719 68.785156 291.109375 68.214844 C 292.050781 65.785156 292.679688 62.246094 291.660156 59.847656 C 291.625 59.765625 291.503906 59.816406 291.535156 59.894531 C 292.429688 62.253906 291.695312 65.765625 290.726562 68.0625 C 290.367188 68.902344 289.757812 69.457031 288.800781 69.636719 C 288.640625 69.667969 287.105469 69.609375 286.9375 69.601562 C 286.363281 69.574219 286.546875 69.589844 286.085938 69.515625 C 285.164062 69.382812 284.769531 69.507812 284.558594 69.386719 C 284.292969 69.234375 283.488281 68.171875 283.09375 66.996094 C 282.894531 66.425781 282.757812 65.828125 282.636719 65.21875 C 282.320312 63.605469 282.308594 63.601562 282.292969 63.40625 C 282.15625 62.078125 282.804688 60.730469 283.800781 60.097656 C 285.023438 59.300781 288.328125 58.773438 289.761719 58.507812 Z M 281.558594 63.484375 C 281.582031 63.730469 281.613281 63.800781 281.945312 65.367188 C 282.199219 66.527344 282.5 67.589844 283.136719 68.597656 C 282.496094 67.984375 281.734375 66.992188 281.289062 66.140625 C 281.253906 66.070312 281.148438 66.105469 281.164062 66.183594 C 281.386719 67.292969 282.382812 69.101562 283.480469 69.871094 C 283.738281 70.054688 283.910156 70.117188 284.128906 70.183594 C 285.015625 70.453125 289.113281 70.773438 291.117188 70.445312 C 291.335938 70.390625 291.523438 70.339844 291.8125 70.164062 C 293.839844 68.914062 295.125 63.992188 293.957031 60.902344 C 293.917969 60.773438 293.789062 60.445312 293.558594 59.992188 C 292.628906 58.160156 291.574219 57.269531 289.597656 57.65625 C 287.414062 58.085938 284.261719 58.582031 282.953125 59.757812 C 281.929688 60.667969 281.402344 62.117188 281.558594 63.484375 " fill-opacity="1" fill-rule="nonzero"/></svg>